<svg xmlns="http://www.w3.org/2000/svg" viewBox="0 0 98.22 118.84"><defs><style>.cls-1{fill:none;stroke:#4761ac;stroke-miterlimit:10;stroke-width:2.52px;}</style></defs><title>Asset 1</title><g id="Layer_2" data-name="Layer 2"><g id="Layer_1-2" data-name="Layer 1"><path class="cls-1" d="M17.14,45.94A8.87,8.87,0,0,1,26,37.08h0a8.87,8.87,0,0,1,8.87,8.87,8.87,8.87,0,0,1,17.74,0,8.87,8.87,0,1,1,17.74,0V10.13a8.87,8.87,0,0,1,17.74,0v72a35.47,35.47,0,0,1-35.47,35.47h0A35.47,35.47,0,0,1,17.14,82.1V69.18"/><path class="cls-1" d="M88.09,74a8.87,8.87,0,0,0,0-17.74"/><path class="cls-1" d="M17.14,69.18h0A17.14,17.14,0,0,1,0,86.32H0"/><path class="cls-1" d="M34.28,86.32h0A17.14,17.14,0,0,1,17.14,69.18h0"/></g></g></svg>